<?xml version="1.0" ?>
<svg viewBox="0 0 64 64" xmlns="http://www.w3.org/2000/svg">
  <g data-name="Layer 76" id="Layer_76">
    <path fill="#FFFFFF" d="M59.24,60.5H4a.5.5,0,0,1-.5-.5V4.76a.5.5,0,0,1,.5-.5H22.87a.5.5,0,0,1,.5.5V8.45a.5.5,0,0,1-.5.5H8.18V55.82H55.05V41.13a.5.5,0,0,1,.5-.5h3.69a.5.5,0,0,1,.5.5V60A.5.5,0,0,1,59.24,60.5ZM4.5,59.5H58.74V41.63H56.05V56.32a.5.5,0,0,1-.5.5H7.68a.51.51,0,0,1-.5-.5V8.45a.5.5,0,0,1,.5-.5H22.37V5.26H4.5Z"/>
    <path fill="#FFFFFF" d="M43.18,16H39.5a.5.5,0,0,1-.5-.5V12.26l-.45.44a.48.48,0,0,1-.7,0l-2.61-2.6a.53.53,0,0,1-.15-.36.51.51,0,0,1,.15-.35L41,3.65a.47.47,0,0,1,.35-.15h0a.47.47,0,0,1,.35.15l5.75,5.74a.5.5,0,0,1,.14.35.52.52,0,0,1-.14.36l-2.61,2.6a.48.48,0,0,1-.7,0l-.45-.44v3.23A.5.5,0,0,1,43.18,16ZM40,15h2.68V11.05a.5.5,0,0,1,.31-.46.47.47,0,0,1,.54.11l.95.94,1.9-1.9-5-5-5,5,1.9,1.9.94-.94a.49.49,0,0,1,.55-.11.5.5,0,0,1,.31.46Z"/>
    <path fill="#FFFFFF" d="M54.26,28.91a.53.53,0,0,1-.36-.15l-2.6-2.61a.48.48,0,0,1,0-.7l.44-.45H48.51a.5.5,0,0,1-.5-.5V20.82a.5.5,0,0,1,.5-.5h3.23l-.44-.44a.5.5,0,0,1,0-.71l2.6-2.61a.52.52,0,0,1,.36-.14h0a.5.5,0,0,1,.35.14l5.74,5.75a.48.48,0,0,1,0,.7l-5.74,5.75a.51.51,0,0,1-.35.15Zm-1.9-3.11,1.9,1.9,5-5-5-5-1.9,1.9.94.95a.49.49,0,0,1,.11.54.5.5,0,0,1-.46.31H49V24H53a.5.5,0,0,1,.46.31.51.51,0,0,1-.11.55Z"/>
    <path fill="#FFFFFF" d="M41.62,41.26a.51.51,0,0,1-.36-.15L35.6,35.45a.5.5,0,0,1,0-.7l2.57-2.57a.5.5,0,0,1,.71,0l.42.42V29.44a.5.5,0,0,1,.5-.5h3.63a.5.5,0,0,1,.5.5v3.17l.43-.43a.48.48,0,0,1,.7,0l2.57,2.57a.5.5,0,0,1,0,.7L42,41.11A.5.5,0,0,1,41.62,41.26Zm-5-6.16,5,4.95,5-4.95-1.86-1.86-.93.93a.5.5,0,0,1-.85-.36V29.94H40.3v3.87a.5.5,0,0,1-.85.36l-.93-.93Z"/>
    <path fill="#FFFFFF" d="M28.43,28.91a.49.49,0,0,1-.35-.15L22.33,23a.5.5,0,0,1,0-.7l5.75-5.75a.51.51,0,0,1,.71,0l2.6,2.61a.5.5,0,0,1,0,.71l-.44.44h3.23a.5.5,0,0,1,.5.5V24.5a.5.5,0,0,1-.5.5H31l.44.45a.48.48,0,0,1,0,.7l-2.6,2.61A.51.51,0,0,1,28.43,28.91Zm-5-6.25,5,5,1.9-1.9-.94-.94a.49.49,0,0,1-.11-.55.5.5,0,0,1,.46-.31h3.94V21.32H29.74a.5.5,0,0,1-.46-.31.47.47,0,0,1,.11-.54l.94-.95-1.9-1.9Z"/>
  </g>
</svg>
